<svg xmlns="http://www.w3.org/2000/svg" xmlns:xlink="http://www.w3.org/1999/xlink" width="91116" zoomAndPan="magnify" viewBox="0 0 68337 28805.249157" height="38407" preserveAspectRatio="xMidYMid meet" version="1.0"><defs><g/></defs><path fill="#000000" d="M 66.496094 19810.734375 L 207.082031 18286.285156 C 228.957031 18048.917969 253.96875 17801.910156 379.339844 17599.027344 C 537.167969 17343.808594 823.332031 17204.566406 1073.714844 17039.34375 C 1104.695312 17018.660156 1135.292969 16997.421875 1165.503906 16975.628906 C 1195.714844 16953.835938 1225.519531 16931.5 1254.921875 16908.625 C 1284.320312 16885.75 1313.296875 16862.347656 1341.851562 16838.421875 C 1370.402344 16814.492188 1398.507812 16790.054688 1426.175781 16765.109375 C 1453.839844 16740.160156 1481.039062 16714.71875 1507.78125 16688.785156 C 1534.523438 16662.851562 1560.785156 16636.441406 1586.566406 16609.550781 C 1612.351562 16582.664062 1637.632812 16555.316406 1662.425781 16527.511719 C 1687.214844 16499.707031 1711.492188 16471.460938 1735.257812 16442.773438 C 1759.023438 16414.085938 1782.257812 16384.976562 1804.964844 16355.449219 C 1827.671875 16325.917969 1849.839844 16295.984375 1871.460938 16265.652344 C 1893.082031 16235.316406 1914.144531 16204.597656 1934.652344 16173.5 C 1955.160156 16142.402344 1975.09375 16110.941406 1994.460938 16079.117188 C 2013.824219 16047.292969 2032.605469 16015.128906 2050.804688 15982.625 C 2069 15950.121094 2086.601562 15917.296875 2103.609375 15884.152344 C 2120.613281 15851.011719 2137.015625 15817.570312 2152.808594 15783.832031 C 2168.597656 15750.09375 2183.777344 15716.078125 2198.335938 15681.789062 C 2179.65625 15630.484375 2166.101562 15577.863281 2157.667969 15523.921875 C 2111.066406 15207.296875 1935.101562 14797.910156 1861.578125 14431.101562 C 1840.980469 14456.074219 1819.359375 14480.125 1796.722656 14503.265625 C 1774.082031 14526.402344 1750.503906 14548.542969 1725.988281 14569.683594 C 1701.476562 14590.824219 1676.113281 14610.890625 1649.898438 14629.882812 C 1623.683594 14648.878906 1596.710938 14666.726562 1568.984375 14683.4375 C 1562.25 14688.039062 1555.28125 14692.253906 1548.082031 14696.089844 C 1540.878906 14699.921875 1533.492188 14703.347656 1525.914062 14706.363281 C 1518.332031 14709.378906 1510.613281 14711.96875 1502.746094 14714.132812 C 1494.882812 14716.296875 1486.925781 14718.019531 1478.871094 14719.304688 C 1354.714844 14731.503906 1408.882812 14194.304688 1369.273438 14075.964844 C 1353.699219 14029.402344 1640.230469 13140.117188 1683.785156 13077.207031 C 1774.839844 12945.652344 2016.757812 12736.710938 2212.8125 12581.855469 C 2228.792969 12544.558594 2245.328125 12507.503906 2262.410156 12470.699219 C 2279.488281 12433.890625 2297.113281 12397.34375 2315.277344 12361.058594 C 2333.441406 12324.773438 2352.136719 12288.765625 2371.371094 12253.035156 C 2390.601562 12217.304688 2410.359375 12181.867188 2430.640625 12146.722656 C 2450.921875 12111.574219 2471.722656 12076.738281 2493.039062 12042.210938 C 2514.351562 12007.679688 2536.171875 11973.476562 2558.503906 11939.59375 C 2580.832031 11905.710938 2603.65625 11872.167969 2626.980469 11838.960938 C 2650.300781 11805.757812 2674.109375 11772.902344 2698.40625 11740.402344 C 2722.703125 11707.902344 2747.476562 11675.769531 2772.726562 11644.003906 C 2797.976562 11612.238281 2823.6875 11580.855469 2849.867188 11549.851562 C 2876.046875 11518.847656 2902.679688 11488.238281 2929.765625 11458.023438 C 2956.851562 11427.808594 2984.378906 11398.003906 3012.34375 11368.605469 C 3040.316406 11339.207031 3068.714844 11310.230469 3097.542969 11281.671875 C 3126.371094 11253.117188 3155.617188 11224.992188 3185.277344 11197.304688 C 3214.941406 11169.613281 3245.007812 11142.367188 3275.472656 11115.570312 C 3305.941406 11088.769531 3336.800781 11062.429688 3368.050781 11036.546875 C 3780.8125 10700.5625 4298.085938 10525.292969 4802.871094 10356.730469 C 5892.722656 9992.972656 7022.710938 9624.132812 8166.160156 9737.222656 C 9356.25 9854.707031 10521.699219 10490.441406 11690.074219 10235.585938 C 12220.074219 10119.972656 12710.265625 9936.648438 13251.367188 9898.707031 C 13955.214844 9849.300781 15039.003906 10230.460938 15404.226562 10563.152344 C 16054.601562 10847.8125 16665.851562 10836.550781 17317.890625 10828.945312 C 17520.40625 10774.65625 17639.152344 10608.414062 17743.421875 10545.867188 C 17821.417969 10499.101562 18141.949219 10749.199219 18248.125 11254.1875 C 18806.308594 11785.777344 19603.648438 12423.664062 19728.777344 13001.242188 C 19783.554688 13254.066406 19675.503906 13296.5625 19763.097656 13539.945312 C 20002.335938 14204.390625 20253.164062 14840.652344 20678.941406 15329.007812 C 20681.035156 15331.390625 20683.070312 15333.816406 20685.046875 15336.296875 C 20687.019531 15338.777344 20688.933594 15341.304688 20690.785156 15343.878906 C 20692.636719 15346.453125 20694.425781 15349.070312 20696.148438 15351.730469 C 20697.871094 15354.394531 20699.527344 15357.09375 20701.117188 15359.839844 C 20702.707031 15362.582031 20704.226562 15365.363281 20705.679688 15368.179688 C 20707.132812 15371 20708.515625 15373.851562 20709.828125 15376.734375 C 20711.144531 15379.621094 20712.382812 15382.539062 20713.554688 15385.484375 C 20714.722656 15388.433594 20715.820312 15391.40625 20716.84375 15394.40625 C 20717.867188 15397.40625 20718.816406 15400.433594 20719.691406 15403.480469 C 20720.5625 15406.527344 20721.363281 15409.59375 20722.085938 15412.679688 C 20722.8125 15415.769531 20723.457031 15418.871094 20724.03125 15421.988281 C 20724.601562 15425.109375 20725.09375 15428.238281 20725.511719 15431.382812 C 20725.929688 15434.523438 20726.269531 15437.675781 20726.53125 15440.835938 C 20726.792969 15443.996094 20726.980469 15447.160156 20727.085938 15450.328125 C 20727.191406 15453.496094 20727.222656 15456.664062 20727.171875 15459.835938 C 20727.125 15463.003906 20726.996094 15466.171875 20726.792969 15469.335938 C 20726.585938 15472.5 20726.304688 15475.65625 20725.945312 15478.808594 C 20725.585938 15481.957031 20725.148438 15485.097656 20724.632812 15488.226562 C 20724.117188 15491.351562 20723.527344 15494.46875 20722.859375 15497.566406 C 20722.191406 15500.667969 20721.449219 15503.746094 20720.628906 15506.808594 C 20719.8125 15509.875 20718.917969 15512.914062 20717.949219 15515.933594 C 20716.980469 15518.953125 20715.9375 15521.945312 20714.824219 15524.914062 C 20713.707031 15527.878906 20712.519531 15530.820312 20711.257812 15533.730469 C 20710 15536.636719 20708.667969 15539.515625 20707.265625 15542.359375 C 20705.863281 15545.203125 20704.394531 15548.011719 20702.855469 15550.78125 C 20701.316406 15553.554688 20699.707031 15556.285156 20698.035156 15558.976562 C 20696.359375 15561.671875 20694.621094 15564.320312 20692.816406 15566.925781 C 20691.011719 15569.535156 20689.144531 15572.097656 20687.214844 15574.613281 C 20685.285156 15577.128906 20683.292969 15579.59375 20681.242188 15582.011719 C 20679.191406 15584.429688 20677.082031 15586.792969 20674.914062 15589.105469 C 20672.746094 15591.421875 20670.523438 15593.679688 20668.246094 15595.882812 C 20665.964844 15598.089844 20663.632812 15600.234375 20661.25 15602.324219 C 20639.386719 15621.261719 20617.011719 15639.570312 20594.121094 15657.25 C 20571.230469 15674.929688 20547.859375 15691.949219 20524.011719 15708.3125 C 20500.160156 15724.679688 20475.871094 15740.359375 20451.140625 15755.359375 C 20426.410156 15770.355469 20401.277344 15784.648438 20375.746094 15798.234375 C 20350.210938 15811.820312 20324.3125 15824.675781 20298.058594 15836.804688 C 20271.800781 15848.933594 20245.222656 15860.316406 20218.324219 15870.949219 C 20191.425781 15881.582031 20164.253906 15891.453125 20136.800781 15900.558594 C 20109.347656 15909.664062 20081.660156 15917.992188 20053.738281 15925.539062 C 19993.714844 15941.804688 20024.582031 15948.230469 19997.539062 15975.882812 C 19988.753906 15982.609375 19979.691406 15988.941406 19970.355469 15994.878906 C 19961.015625 16000.816406 19951.4375 16006.332031 19941.621094 16011.433594 C 19931.800781 16016.535156 19921.777344 16021.195312 19911.550781 16025.421875 C 19901.324219 16029.648438 19890.933594 16033.417969 19880.378906 16036.738281 C 19869.824219 16040.058594 19859.144531 16042.910156 19848.339844 16045.296875 C 19837.535156 16047.683594 19826.648438 16049.597656 19815.675781 16051.03125 C 19804.707031 16052.46875 19793.695312 16053.425781 19782.640625 16053.902344 C 19771.585938 16054.378906 19760.53125 16054.371094 19749.476562 16053.882812 C 19685.265625 16050.546875 19399.179688 15998.859375 19061.652344 15925.253906 C 18556.414062 15815.089844 18456.945312 16028.019531 18292.738281 15908.542969 C 18144.265625 15800.492188 17649.96875 15512.535156 17367.664062 15334.378906 C 17184.667969 15218.96875 16990 15235.273438 16921.070312 15238.648438 C 16495.746094 15344.992188 16283.101562 15493.871094 16219.296875 15727.78125 C 16156.265625 15958.84375 16247.316406 16348.628906 16304.371094 16599.699219 C 16316.773438 16654.355469 16528.035156 17258.734375 16756.046875 17897.394531 C 16918.265625 18351.59375 17089.0625 18823.15625 17203.007812 19126.730469 C 17377.875 19592.722656 17510.363281 19831.390625 17878.066406 20172.417969 C 18158.863281 20291.933594 18653.363281 20393.800781 18956.285156 20430.847656 C 19259.207031 20467.898438 19591.976562 20608.03125 19684.207031 20898.996094 L 18484.113281 21031.972656 C 18165.980469 21067.230469 17845.042969 21102.488281 17526.546875 21070.445312 C 16664.429688 20983.582031 15925.363281 20416.371094 15333.589844 19783.40625 C 15003.136719 19429.894531 14645.035156 19139.253906 14411.730469 18768.828125 C 14266.71875 18538.617188 13858.671875 17188.75 13443.878906 16674.121094 C 12880.328125 16982.492188 12473.058594 17456.085938 12072.214844 17918.214844 C 11724.925781 18318.574219 11181.628906 18570.09375 10985.941406 19093.464844 C 10898.835938 19326.601562 10754.714844 19766.121094 10859.878906 19991.613281 C 10988.503906 20267.003906 11534.078125 20326.824219 11816.871094 20438.210938 C 12099.664062 20549.59375 12263.832031 20645.242188 12214.136719 20945.070312 L 10906.238281 20926.851562 C 10764.800781 20924.902344 10620.476562 20922.417969 10486.96875 20875.652344 C 10188.398438 20771.0625 10007.394531 20471.3125 9881.25 20181.160156 C 9628.222656 19599.226562 9336.769531 18967.277344 9328.71875 18332.847656 C 9322.984375 17881.128906 10057.007812 16876.105469 9881.777344 16876.105469 C 9243.769531 16876.105469 8669.605469 17248.28125 7585 17343.765625 C 6373.761719 17450.636719 6097.636719 17290.898438 6096.378906 17343.765625 C 6091.050781 17571.496094 6131.1875 18074.453125 6075.109375 18300.761719 C 6009.230469 18566.714844 5775.726562 19022.5 5724.242188 19289.636719 C 5610.09375 19881.410156 5656.65625 19863.921875 6202.71875 20119.222656 C 6409.222656 20215.683594 6748.050781 20251.957031 6968.300781 20310.597656 C 7188.546875 20369.238281 7303.265625 20661.953125 7351.089844 20884.804688 C 6617.269531 20855.808594 6025.742188 20806.644531 5291.921875 20777.648438 C 4977.449219 20765.203125 4637.847656 20743.570312 4396.128906 20542.027344 C 4231.269531 20404.496094 4089.140625 19583.121094 3969.746094 19321.722656 C 3752.46875 18845.929688 3603.46875 18381.523438 3436.574219 17914.148438 C 3016.617188 18224.390625 2496.496094 18471.273438 2056.53125 18675.335938 C 1782.765625 18802.253906 1498.308594 18917.296875 1264.113281 19107.535156 C 1029.917969 19297.769531 848.832031 19582.429688 868.351562 19883.5625 C 871.449219 19904.109375 872.835938 19924.765625 872.507812 19945.539062 C 872.179688 19966.3125 870.140625 19986.914062 866.398438 20007.351562 C 863.105469 20016.734375 859.351562 20025.929688 855.136719 20034.933594 C 850.921875 20043.9375 846.265625 20052.710938 841.167969 20061.246094 C 836.070312 20069.78125 830.554688 20078.042969 824.628906 20086.023438 C 818.699219 20094.007812 812.382812 20101.671875 805.683594 20109.015625 C 676.878906 20270.785156 548.105469 20432.542969 419.355469 20594.285156 C 416.410156 20598.949219 413.105469 20603.335938 409.433594 20607.453125 C 405.761719 20611.566406 401.777344 20615.355469 397.480469 20618.8125 C 393.1875 20622.273438 388.636719 20625.355469 383.832031 20628.0625 C 379.027344 20630.773438 374.03125 20633.066406 368.847656 20634.953125 C 363.503906 20635.652344 358.136719 20635.859375 352.75 20635.582031 C 347.367188 20635.300781 342.050781 20634.539062 336.804688 20633.289062 C 331.558594 20632.042969 326.46875 20630.332031 321.535156 20628.15625 C 316.601562 20625.984375 311.902344 20623.382812 307.441406 20620.351562 C 45.878906 20475.785156 39.046875 20108.53125 66.496094 19810.734375 Z M 66.496094 19810.734375 " fill-opacity="1" fill-rule="nonzero"/><path fill="#000000" d="M 31843.574219 8798.859375 C 31896.824219 9140.539062 31923.449219 9491.101562 31923.449219 9850.546875 C 31923.449219 9921.546875 31921.230469 10016.960938 31916.792969 10136.78125 C 31854.667969 10150.09375 31808.074219 10156.75 31777.011719 10156.75 C 31750.386719 10156.75 31712.667969 10152.3125 31663.855469 10143.4375 C 31477.480469 9624.242188 31173.511719 9224.859375 30751.949219 8945.296875 C 30330.386719 8665.726562 29808.980469 8525.9375 29187.730469 8525.9375 C 28859.34375 8525.9375 28581.996094 8563.664062 28355.683594 8639.109375 C 27956.308594 8776.671875 27605.746094 8966.375 27303.996094 9208.21875 C 27002.246094 9450.0625 26747.089844 9738.5 26538.527344 10073.53125 C 26329.964844 10408.5625 26164.660156 10814.601562 26042.621094 11291.640625 C 25920.589844 11768.671875 25859.574219 12255.6875 25859.574219 12752.6875 C 25859.574219 13702.324219 26003.792969 14486.65625 26292.230469 15105.6875 C 26580.667969 15724.71875 26975.605469 16166.25 27477.042969 16430.28125 C 27978.488281 16694.3125 28484.371094 16826.328125 28994.683594 16826.328125 L 29307.542969 16819.671875 C 29662.53125 16775.296875 29904.375 16733.140625 30033.074219 16693.203125 C 30357.011719 16600.015625 30624.371094 16490.1875 30835.152344 16363.71875 C 31045.933594 16237.25 31252.277344 16058.640625 31454.183594 15827.890625 C 31656.089844 15597.132812 31828.042969 15328.664062 31970.042969 15022.484375 L 32049.917969 14995.859375 C 32072.105469 14995.859375 32105.386719 15009.171875 32149.761719 15035.796875 C 32145.324219 15142.296875 32140.886719 15211.078125 32136.449219 15242.140625 C 31950.074219 15992.078125 31814.730469 16504.609375 31730.417969 16779.734375 C 31659.425781 16797.484375 31570.675781 16824.109375 31464.167969 16859.609375 C 30944.96875 17037.109375 30250.5 17125.859375 29380.761719 17125.859375 C 28679.625 17125.859375 28154.886719 17078.15625 27806.542969 16982.75 C 27458.199219 16887.34375 27078.792969 16738.6875 26668.324219 16536.78125 C 26257.855469 16334.875 25897.300781 16067.515625 25586.667969 15734.703125 C 25276.042969 15401.890625 25025.324219 14981.4375 24834.511719 14473.34375 C 24643.699219 13965.242188 24548.292969 13411.65625 24548.292969 12812.59375 C 24548.292969 12244.59375 24623.730469 11748.703125 24774.605469 11324.921875 C 24925.480469 10901.132812 25158.449219 10471.796875 25473.511719 10036.921875 C 25788.574219 9602.046875 26160.214844 9240.390625 26588.433594 8951.953125 C 27016.660156 8663.507812 27492.589844 8459.375 28016.214844 8339.5625 C 28384.527344 8259.699219 28905.9375 8219.765625 29580.449219 8219.765625 C 30073.011719 8219.765625 30536.730469 8285.21875 30971.605469 8416.125 C 31406.488281 8547.03125 31697.144531 8674.609375 31843.574219 8798.859375 Z M 31843.574219 8798.859375 " fill-opacity="1" fill-rule="nonzero"/><path fill="#000000" d="M 38025.910156 16040.890625 C 38052.535156 16098.578125 38065.847656 16140.734375 38065.847656 16167.359375 C 38065.847656 16233.921875 38012.597656 16351.511719 37906.097656 16520.125 C 37768.523438 16742.011719 37615.425781 16903.984375 37446.800781 17006.046875 C 37340.300781 17072.609375 37193.863281 17105.890625 37007.488281 17105.890625 C 36687.988281 17105.890625 36448.363281 17008.265625 36288.613281 16813.015625 C 36190.988281 16697.640625 36122.207031 16491.296875 36082.269531 16193.984375 L 35336.753906 16713.171875 C 35074.949219 16864.046875 34875.269531 16959.453125 34737.707031 16999.390625 C 34515.820312 17057.078125 34249.570312 17085.921875 33938.957031 17085.921875 C 33712.632812 17085.921875 33534.019531 17018.25 33403.113281 16882.90625 C 33272.207031 16747.5625 33206.753906 16573.390625 33206.753906 16360.390625 C 33206.753906 16054.203125 33394.238281 15688.109375 33769.207031 15262.109375 C 34144.175781 14836.101562 34653.378906 14487.757812 35296.816406 14217.078125 C 35749.449219 14026.257812 36026.800781 13904.21875 36128.863281 13850.96875 C 36137.738281 13704.53125 36142.175781 13544.78125 36142.175781 13371.71875 C 36142.175781 12808.148438 36063.410156 12426.523438 35905.878906 12226.84375 C 35748.347656 12027.15625 35523.136719 11927.3125 35230.253906 11927.3125 C 34924.074219 11927.3125 34637.855469 12047.125 34371.597656 12286.75 C 34207.417969 12437.617188 34083.175781 12721.617188 33998.863281 13138.75 C 33972.238281 13254.125 33921.207031 13378.375 33845.769531 13511.5 C 33654.945312 13635.75 33501.847656 13697.875 33386.472656 13697.875 C 33288.847656 13697.875 33200.101562 13669.03125 33120.238281 13611.34375 C 33075.863281 13580.28125 33053.675781 13544.78125 33053.675781 13504.84375 C 33053.675781 13389.46875 33176.808594 13128.765625 33423.082031 12722.734375 C 33669.363281 12316.703125 33979.988281 12012.734375 34354.957031 11810.828125 C 34729.933594 11608.914062 35057.199219 11507.953125 35336.753906 11507.953125 C 35718.386719 11507.953125 36002.394531 11542.34375 36188.769531 11611.125 C 36375.144531 11679.90625 36539.332031 11800.835938 36681.332031 11973.90625 C 36823.332031 12146.96875 36909.863281 12335.5625 36940.925781 12539.6875 C 36958.675781 12637.3125 36967.550781 12985.65625 36967.550781 13584.71875 L 36947.582031 14643.0625 L 36954.238281 15415.1875 C 36954.238281 15517.25 36952.019531 15603.78125 36947.582031 15674.78125 C 36943.144531 15803.480469 36940.925781 15898.890625 36940.925781 15961.015625 C 36940.925781 16107.453125 36983.085938 16225.046875 37067.410156 16313.796875 C 37151.722656 16402.539062 37251.558594 16446.90625 37366.925781 16446.90625 C 37535.550781 16446.90625 37679.769531 16362.601562 37799.582031 16193.984375 L 37879.472656 16087.484375 C 37901.660156 16074.171875 37950.472656 16058.640625 38025.910156 16040.890625 Z M 36068.957031 15847.859375 C 36100.019531 15284.296875 36115.550781 14887.136719 36115.550781 14656.375 C 36115.550781 14536.5625 36108.894531 14374.601562 36095.582031 14170.484375 C 35798.269531 14276.984375 35483.207031 14438.953125 35150.394531 14656.390625 C 34817.582031 14873.828125 34553.542969 15124.546875 34358.285156 15408.546875 C 34216.292969 15612.664062 34145.300781 15805.695312 34145.300781 15987.640625 C 34145.300781 16160.703125 34204.089844 16304.921875 34321.675781 16420.296875 C 34439.269531 16535.671875 34586.820312 16593.359375 34764.332031 16593.359375 C 34901.894531 16593.359375 35068.292969 16544.542969 35263.535156 16446.90625 C 35520.917969 16318.230469 35789.394531 16118.546875 36068.957031 15847.859375 Z M 36068.957031 15847.859375 " fill-opacity="1" fill-rule="nonzero"/><path fill="#000000" d="M 38497.628906 8699.015625 L 38497.628906 8552.578125 C 38621.878906 8512.632812 38759.441406 8470.46875 38910.316406 8426.09375 C 39132.191406 8355.09375 39460.566406 8246.382812 39895.441406 8099.953125 L 40208.300781 8099.953125 C 40212.738281 8312.945312 40214.957031 8434.96875 40214.957031 8466.03125 C 40214.957031 12109.242188 40203.863281 14281.414062 40181.675781 14982.546875 C 40168.363281 15395.226562 40161.707031 15614.875 40161.707031 15641.5 C 40161.707031 16138.511719 40181.675781 16415.855469 40221.613281 16473.53125 C 40274.863281 16553.417969 40437.941406 16608.890625 40710.847656 16639.953125 C 40983.753906 16671.015625 41144.613281 16702.078125 41193.425781 16733.140625 C 41228.925781 16750.890625 41246.675781 16781.953125 41246.675781 16826.328125 C 41246.675781 16875.140625 41236.691406 16909.53125 41216.722656 16929.5 C 41196.753906 16949.46875 41160.144531 16959.453125 41106.894531 16959.453125 C 41075.832031 16959.453125 40842.863281 16952.796875 40407.988281 16939.484375 L 39536.019531 16912.859375 L 38417.753906 16959.453125 C 38346.753906 16963.890625 38293.503906 16950.578125 38258.003906 16919.515625 C 38231.378906 16897.328125 38218.066406 16866.265625 38218.066406 16826.328125 C 38218.066406 16781.953125 38232.488281 16749.78125 38261.332031 16729.8125 C 38290.175781 16709.84375 38449.925781 16675.453125 38740.582031 16626.640625 C 39031.238281 16577.828125 39197.644531 16536.78125 39239.800781 16503.5 C 39281.957031 16470.210938 39309.691406 16395.882812 39323.003906 16280.515625 C 39340.753906 16120.765625 39349.628906 15670.355469 39349.628906 14929.28125 L 39342.972656 13398.34375 L 39362.957031 11814.15625 L 39356.300781 10229.96875 L 39376.269531 9451.171875 C 39376.269531 9295.859375 39351.855469 9183.8125 39303.035156 9115.03125 C 39254.222656 9046.25 39149.941406 8978.578125 38990.191406 8912.015625 C 38750.574219 8814.390625 38586.386719 8743.390625 38497.628906 8699.015625 Z M 38497.628906 8699.015625 " fill-opacity="1" fill-rule="nonzero"/><path fill="#000000" d="M 41618.933594 8699.015625 L 41618.933594 8552.578125 C 41743.183594 8512.632812 41880.746094 8470.46875 42031.621094 8426.09375 C 42253.496094 8355.09375 42581.871094 8246.382812 43016.746094 8099.953125 L 43329.605469 8099.953125 C 43334.042969 8312.945312 43336.261719 8434.96875 43336.261719 8466.03125 C 43336.261719 12109.242188 43325.167969 14281.414062 43302.980469 14982.546875 C 43289.667969 15395.226562 43283.011719 15614.875 43283.011719 15641.5 C 43283.011719 16138.511719 43302.980469 16415.855469 43342.917969 16473.53125 C 43396.167969 16553.417969 43559.246094 16608.890625 43832.152344 16639.953125 C 44105.058594 16671.015625 44265.917969 16702.078125 44314.730469 16733.140625 C 44350.230469 16750.890625 44367.980469 16781.953125 44367.980469 16826.328125 C 44367.980469 16875.140625 44357.996094 16909.53125 44338.027344 16929.5 C 44318.058594 16949.46875 44281.449219 16959.453125 44228.199219 16959.453125 C 44197.136719 16959.453125 43964.167969 16952.796875 43529.292969 16939.484375 L 42657.324219 16912.859375 L 41539.058594 16959.453125 C 41468.058594 16963.890625 41414.808594 16950.578125 41379.308594 16919.515625 C 41352.683594 16897.328125 41339.371094 16866.265625 41339.371094 16826.328125 C 41339.371094 16781.953125 41353.792969 16749.78125 41382.636719 16729.8125 C 41411.480469 16709.84375 41571.230469 16675.453125 41861.886719 16626.640625 C 42152.542969 16577.828125 42318.949219 16536.78125 42361.105469 16503.5 C 42403.261719 16470.210938 42430.996094 16395.882812 42444.308594 16280.515625 C 42462.058594 16120.765625 42470.933594 15670.355469 42470.933594 14929.28125 L 42464.277344 13398.34375 L 42484.261719 11814.15625 L 42477.605469 10229.96875 L 42497.574219 9451.171875 C 42497.574219 9295.859375 42473.160156 9183.8125 42424.339844 9115.03125 C 42375.527344 9046.25 42271.246094 8978.578125 42111.496094 8912.015625 C 41871.878906 8814.390625 41707.691406 8743.390625 41618.933594 8699.015625 Z M 41618.933594 8699.015625 " fill-opacity="1" fill-rule="nonzero"/><path fill="#000000" d="M 45339.304688 8765.578125 C 45339.304688 8619.140625 45395.882812 8492.671875 45509.039062 8386.171875 C 45622.203125 8279.671875 45758.664062 8226.421875 45918.414062 8226.421875 C 46082.589844 8226.421875 46226.804688 8286.328125 46351.054688 8406.140625 C 46475.3125 8525.953125 46537.445312 8654.640625 46537.445312 8792.203125 C 46537.445312 8929.765625 46475.3125 9059.5625 46351.054688 9181.59375 C 46226.804688 9303.625 46082.589844 9364.640625 45918.414062 9364.640625 C 45754.226562 9364.640625 45616.65625 9309.171875 45505.710938 9198.234375 C 45394.773438 9087.296875 45339.304688 8943.078125 45339.304688 8765.578125 Z M 44780.179688 12213.53125 L 44786.835938 12020.5 C 45075.273438 11936.1875 45230.585938 11887.375 45252.773438 11874.0625 C 45412.523438 11803.0625 45580.039062 11694.34375 45755.320312 11547.90625 C 45930.601562 11401.460938 46078.148438 11237.273438 46197.960938 11055.34375 C 46251.210938 11046.46875 46293.367188 11042.03125 46324.429688 11042.03125 L 46404.320312 11048.6875 C 46422.070312 11261.679688 46430.945312 11416.984375 46430.945312 11514.609375 C 46430.945312 11536.796875 46426.507812 11636.648438 46417.632812 11814.15625 L 46417.632812 12166.9375 L 46424.289062 14083.9375 L 46404.320312 16114.109375 C 46399.871094 16278.296875 46426.492188 16392.5625 46484.179688 16456.90625 C 46541.875 16521.25 46712.71875 16593.359375 46996.710938 16673.234375 C 47174.21875 16722.046875 47307.351562 16764.203125 47396.101562 16799.703125 C 47409.414062 16830.765625 47416.070312 16857.390625 47416.070312 16879.578125 C 47416.070312 16906.203125 47404.976562 16939.484375 47382.789062 16979.421875 C 47209.714844 16974.984375 46987.839844 16963.890625 46717.164062 16946.140625 C 46348.839844 16915.078125 46104.773438 16899.546875 45984.960938 16899.546875 C 45927.28125 16899.546875 45572.28125 16910.640625 44919.960938 16932.828125 C 44786.835938 16937.265625 44658.148438 16948.359375 44533.898438 16966.109375 C 44511.710938 16966.109375 44476.210938 16959.453125 44427.398438 16946.140625 C 44405.210938 16915.078125 44394.117188 16888.453125 44394.117188 16866.265625 C 44394.117188 16804.140625 44436.273438 16755.328125 44520.585938 16719.828125 C 44538.335938 16710.953125 44764.648438 16659.921875 45199.523438 16566.734375 C 45341.523438 16540.101562 45434.710938 16495.726562 45479.085938 16433.609375 C 45554.523438 16340.421875 45592.242188 16191.765625 45592.242188 15987.640625 C 45601.125 15645.945312 45605.570312 14709.625 45605.570312 13178.6875 C 45605.570312 12872.5 45592.25 12681.6875 45565.617188 12606.25 C 45543.429688 12552.992188 45484.632812 12491.976562 45389.226562 12423.203125 C 45293.820312 12354.421875 45090.804688 12284.53125 44780.179688 12213.53125 Z M 44780.179688 12213.53125 " fill-opacity="1" fill-rule="nonzero"/><path fill="#000000" d="M 48480.578125 15255.453125 C 48644.773438 15677.015625 48769.03125 15949.921875 48853.34375 16074.171875 C 49021.957031 16327.101562 49223.859375 16523.460938 49459.046875 16663.25 C 49694.242188 16803.03125 49949.398438 16872.921875 50224.515625 16872.921875 C 50477.460938 16872.921875 50728.1875 16764.203125 50976.6875 16546.765625 C 51154.1875 16382.578125 51242.9375 16191.765625 51242.9375 15974.328125 C 51242.9375 15685.882812 51138.65625 15419.632812 50930.09375 15175.578125 C 50721.53125 14935.945312 50325.484375 14706.304688 49741.953125 14486.65625 C 49158.421875 14267 48766.804688 14032.917969 48567.109375 13784.40625 C 48367.421875 13535.90625 48267.578125 13251.90625 48267.578125 12932.40625 C 48267.578125 12630.648438 48349.671875 12364.398438 48513.859375 12133.65625 C 48678.054688 11902.90625 48904.375 11728.734375 49192.8125 11611.140625 C 49481.25 11493.539062 49747.5 11434.734375 49991.5625 11434.734375 C 50306.625 11434.734375 50589.515625 11459.140625 50840.234375 11507.953125 C 51090.953125 11556.765625 51307.28125 11632.210938 51489.21875 11734.28125 C 51524.71875 11960.59375 51553.5625 12293.40625 51575.75 12732.71875 L 51589.0625 12945.71875 C 51531.375 12950.15625 51482.5625 12952.375 51442.625 12952.375 L 51349.4375 12952.375 C 51216.3125 12584.054688 51013.296875 12292.289062 50740.390625 12077.078125 C 50467.484375 11861.859375 50197.90625 11754.25 49931.65625 11754.25 C 49665.40625 11754.25 49450.1875 11835.234375 49286 11997.203125 C 49121.8125 12159.171875 49039.71875 12371.0625 49039.71875 12632.875 C 49039.71875 12832.5625 49106.273438 13010.0625 49239.390625 13165.375 C 49372.515625 13320.6875 49684.25 13498.1875 50174.59375 13697.875 C 50664.945312 13897.5625 51022.171875 14082.828125 51246.265625 14253.671875 C 51470.359375 14424.515625 51635.65625 14631.976562 51742.15625 14876.046875 C 51848.65625 15120.109375 51901.90625 15353.074219 51901.90625 15574.9375 C 51901.90625 15881.136719 51800.953125 16167.359375 51599.046875 16433.609375 C 51397.140625 16699.859375 51144.203125 16887.34375 50840.234375 16996.0625 C 50536.265625 17104.78125 50264.46875 17159.140625 50024.84375 17159.140625 C 49461.269531 17159.140625 48942.078125 17054.859375 48467.265625 16846.296875 C 48422.890625 16810.796875 48398.484375 16744.234375 48394.046875 16646.609375 C 48394.046875 16606.671875 48389.609375 16542.324219 48380.734375 16453.5625 C 48309.734375 15854.5 48274.234375 15499.507812 48274.234375 15388.578125 C 48274.234375 15335.328125 48285.328125 15299.828125 48307.515625 15282.078125 C 48329.703125 15264.328125 48387.390625 15255.453125 48480.578125 15255.453125 Z M 48480.578125 15255.453125 " fill-opacity="1" fill-rule="nonzero"/><path fill="#000000" d="M 54390.570312 10369.734375 L 54596.929688 10376.390625 L 54623.554688 11008.75 L 54610.242188 11827.46875 C 54694.554688 11831.90625 54747.804688 11834.125 54769.992188 11834.125 C 54885.367188 11834.125 55105.023438 11825.25 55428.960938 11807.5 C 55637.523438 11794.1875 55837.210938 11787.53125 56028.023438 11787.53125 C 56116.773438 11787.53125 56249.898438 11789.75 56427.398438 11794.1875 C 56436.273438 11882.9375 56440.710938 11953.9375 56440.710938 12007.1875 C 56440.710938 12064.875 56427.398438 12155.84375 56400.773438 12280.09375 L 56287.617188 12280.09375 L 55255.882812 12313.375 L 54743.367188 12326.6875 L 54623.554688 12339.984375 C 54588.054688 12450.921875 54570.304688 12579.617188 54570.304688 12726.0625 L 54590.273438 13724.5 L 54576.960938 15481.75 C 54576.960938 15943.261719 54636.867188 16249.453125 54756.679688 16400.328125 C 54872.054688 16555.640625 55045.109375 16633.296875 55275.851562 16633.296875 C 55391.234375 16633.296875 55608.679688 16597.792969 55928.179688 16526.78125 C 56025.792969 16504.59375 56156.699219 16431.382812 56320.898438 16307.140625 L 56380.804688 16307.140625 C 56420.742188 16307.140625 56452.914062 16319.34375 56477.320312 16343.75 C 56501.726562 16368.15625 56513.929688 16400.324219 56513.929688 16440.25 L 56507.273438 16486.84375 C 56316.460938 16695.417969 56097.914062 16847.40625 55851.632812 16942.8125 C 55605.351562 17038.21875 55278.085938 17085.921875 54869.835938 17085.921875 C 54581.386719 17085.921875 54342.867188 17019.359375 54154.273438 16886.234375 C 53965.6875 16753.109375 53844.773438 16595.578125 53791.523438 16413.640625 C 53738.273438 16231.703125 53711.648438 15834.546875 53711.648438 15222.171875 L 53738.273438 13724.5 L 53731.617188 13005.625 L 53731.617188 12739.375 C 53731.617188 12615.125 53727.179688 12490.871094 53718.304688 12366.609375 L 53605.132812 12359.953125 L 53059.320312 12379.921875 L 53006.070312 12386.578125 C 52957.265625 12386.578125 52920.65625 12375.492188 52896.242188 12353.3125 C 52871.835938 12331.125 52859.632812 12304.5 52859.632812 12273.4375 C 52859.632812 12220.1875 52876.273438 12176.921875 52909.554688 12143.640625 C 52942.84375 12110.359375 53043.796875 12058.21875 53212.414062 11987.21875 C 53327.789062 11938.40625 53462.023438 11846.328125 53615.117188 11710.984375 C 53768.21875 11575.632812 53898.023438 11425.867188 54004.523438 11261.6875 C 54057.761719 11172.9375 54133.195312 11004.308594 54230.820312 10755.796875 C 54301.820312 10573.859375 54355.070312 10445.171875 54390.570312 10369.734375 Z M 54390.570312 10369.734375 " fill-opacity="1" fill-rule="nonzero"/><path fill="#000000" d="M 56945.980469 14270.328125 C 56945.980469 13968.570312 57009.207031 13645.734375 57135.667969 13301.828125 C 57262.136719 12957.921875 57454.058594 12649.515625 57711.433594 12376.609375 C 57968.808594 12103.703125 58241.71875 11900.6875 58530.167969 11767.5625 C 58933.96875 11581.179688 59426.53125 11487.984375 60007.855469 11487.984375 C 60837.667969 11487.984375 61531.027344 11771.992188 62087.933594 12340 C 62644.847656 12908 62923.308594 13591.375 62923.308594 14390.125 C 62923.308594 15100.125 62631.535156 15733.585938 62047.996094 16290.5 C 61464.464844 16847.40625 60726.730469 17125.859375 59834.792969 17125.859375 C 59284.542969 17125.859375 58765.347656 16981.640625 58277.214844 16693.203125 C 57913.347656 16475.765625 57600.511719 16154.046875 57338.699219 15728.046875 C 57076.886719 15302.046875 56945.980469 14816.140625 56945.980469 14270.328125 Z M 59888.042969 16866.265625 C 60225.292969 16866.265625 60550.339844 16775.296875 60863.183594 16593.359375 C 61176.027344 16411.421875 61425.636719 16119.65625 61612.011719 15718.0625 C 61798.394531 15316.46875 61891.589844 14851.640625 61891.589844 14323.578125 C 61891.589844 13977.445312 61819.472656 13575.84375 61675.246094 13118.78125 C 61531.027344 12661.710938 61309.152344 12318.914062 61009.621094 12090.390625 C 60710.089844 11861.859375 60358.417969 11747.59375 59954.605469 11747.59375 C 59661.730469 11747.59375 59363.308594 11816.375 59059.339844 11953.9375 C 58755.371094 12091.5 58497.996094 12355.53125 58287.214844 12746.03125 C 58076.433594 13136.53125 57971.042969 13691.21875 57971.042969 14410.09375 C 57971.042969 15217.71875 58154.082031 15828.992188 58520.167969 16243.90625 C 58886.261719 16658.8125 59342.21875 16866.265625 59888.042969 16866.265625 Z M 59888.042969 16866.265625 " fill-opacity="1" fill-rule="nonzero"/><g fill="#000000" fill-opacity="1"><g transform="translate(23952.878484, 25332.93034)"><g><path d="M 1137.390625 -3543.78125 C 1482.054688 -3543.78125 1741.335938 -3463.878906 1915.234375 -3304.078125 C 2089.128906 -3144.273438 2176.078125 -2904.578125 2176.078125 -2584.984375 C 2176.078125 -2453.378906 2151.796875 -2323.34375 2103.234375 -2194.875 C 2054.671875 -2066.414062 1975.554688 -1966.15625 1865.890625 -1894.09375 C 2057.015625 -1856.488281 2205.84375 -1754.648438 2312.375 -1588.578125 C 2418.914062 -1422.515625 2472.1875 -1228.253906 2472.1875 -1005.796875 C 2472.1875 -689.328125 2372.703125 -442.578125 2173.734375 -265.546875 C 1974.765625 -88.515625 1701.382812 0 1353.59375 0 L 253.796875 0 L 253.796875 -3543.78125 Z M 944.6875 -2067.984375 L 1029.296875 -2067.984375 C 1217.296875 -2067.984375 1348.109375 -2103.234375 1421.734375 -2173.734375 C 1495.367188 -2244.234375 1532.1875 -2364.082031 1532.1875 -2533.28125 C 1532.1875 -2683.675781 1494.585938 -2797.257812 1419.390625 -2874.03125 C 1344.191406 -2950.800781 1212.59375 -2989.1875 1024.59375 -2989.1875 L 944.6875 -2989.1875 Z M 944.6875 -554.59375 L 1137.390625 -554.59375 C 1366.117188 -554.59375 1530.613281 -592.972656 1630.875 -669.734375 C 1731.144531 -746.503906 1781.28125 -877.320312 1781.28125 -1062.1875 C 1781.28125 -1206.320312 1748.378906 -1311.289062 1682.578125 -1377.09375 C 1616.785156 -1442.894531 1544.722656 -1485.191406 1466.390625 -1503.984375 C 1375.523438 -1529.054688 1250.191406 -1541.59375 1090.390625 -1541.59375 L 944.6875 -1541.59375 Z M 944.6875 -554.59375 "/></g></g></g><g fill="#000000" fill-opacity="1"><g transform="translate(26551.959671, 25332.93034)"><g/></g></g><g fill="#000000" fill-opacity="1"><g transform="translate(27910.251731, 25332.93034)"><g><path d="M 1875.28125 -3637.78125 L 3219.484375 0 L 2481.578125 0 L 2208.984375 -747.296875 L 977.59375 -747.296875 L 686.203125 0 L -42.296875 0 L 1339.484375 -3637.78125 Z M 1175 -1311.296875 L 2016.28125 -1311.296875 L 1574.484375 -2599.078125 L 1565.09375 -2599.078125 Z M 1175 -1311.296875 "/></g></g></g><g fill="#000000" fill-opacity="1"><g transform="translate(31087.431233, 25332.93034)"><g/></g></g><g fill="#000000" fill-opacity="1"><g transform="translate(32445.723294, 25332.93034)"><g><path d="M 752 -3637.78125 L 2617.875 -1160.890625 L 2627.28125 -1160.890625 L 2627.28125 -3543.78125 L 3318.171875 -3543.78125 L 3318.171875 70.5 L 2819.984375 70.5 L 954.09375 -2406.390625 L 944.6875 -2406.390625 L 944.6875 0 L 253.796875 0 L 253.796875 -3637.78125 Z M 752 -3637.78125 "/></g></g></g><g fill="#000000" fill-opacity="1"><g transform="translate(37371.293526, 25332.93034)"><g><path d="M 944.6875 -3543.78125 L 944.6875 -2049.1875 L 954.09375 -2049.1875 L 2049.1875 -3543.78125 L 2899.875 -3543.78125 L 1555.6875 -1908.1875 L 2975.078125 0 L 2086.78125 0 L 954.09375 -1593.296875 L 944.6875 -1593.296875 L 944.6875 0 L 253.796875 0 L 253.796875 -3543.78125 Z M 944.6875 -3543.78125 "/></g></g></g></svg>